<svg
	viewBox="0 0 1080 1080"
	xmlns="http://www.w3.org/2000/svg"
	xml:space="preserve"
	style="fill-rule:evenodd;clip-rule:evenodd;stroke-linejoin:round;stroke-miterlimit:2"
>
	<g>
		<path style="fill:none" d="M0 0h1080v1080H0z"/>
		<circle cx="540" cy="540" r="540" style="fill:#456"/>
		<path d="M268.511 353c-4.6 0-8.51 4.89-8.51 4.89v.19s3.89 4.92 8.49 4.92 8.51-4.89 8.51-4.89v-.19s-3.89-4.92-8.49-4.92m-.03 8.06c-1.56 0-2.82-1.34-2.82-2.99 0-1.66 1.26-3 2.82-3 1.55 0 2.82 1.34 2.82 3 0 1.65-1.27 2.99-2.82 2.99m0-4.38c-.71 0-1.29.61-1.29 1.37 0 .75.58 1.37 1.29 1.37.71 0 1.29-.62 1.29-1.37 0-.76-.58-1.37-1.29-1.37" style="fill:#40bcf4" transform="translate(-5073.177 -7386.593) scale(22.1053)"/>
		<path d="M268.511 353c-4.6 0-8.51 4.89-8.51 4.89v.19s3.89 4.92 8.49 4.92 8.51-4.89 8.51-4.89v-.19s-3.89-4.92-8.49-4.92m-.03 8.06c-1.56 0-2.82-1.34-2.82-2.99 0-1.66 1.26-3 2.82-3 1.55 0 2.82 1.34 2.82 3 0 1.65-1.27 2.99-2.82 2.99m0-4.38c-.71 0-1.29.61-1.29 1.37 0 .75.58 1.37 1.29 1.37.71 0 1.29-.62 1.29-1.37 0-.76-.58-1.37-1.29-1.37" style="fill:#00e054" transform="translate(-5395.284 -7386.593) scale(22.1053)"/>
		<path d="M248.481 356.24c-.72 0-1.3.61-1.3 1.36 0 .35.32.86.52 1.1l-1.11 1.12c-.47-.53-.95-1.43-.95-2.2 0-1.64 1.27-2.97 2.84-2.97.78 0 1.76.61 2.27 1.14l-1.1 1.11c-.23-.24-.82-.66-1.17-.66m.02-3.13c-4.63 0-8.5 4.34-8.5 4.34v.18s1.86 2.37 4.58 3.81l-2.39 2.4c-.65.65.66 2.06 1.36 1.36l12.97-13c.71-.71-.76-1.96-1.37-1.36l-2.89 2.89c-1.16-.61-2.39-.62-3.76-.62m.45 8.87c3.84 0 8.03-4.32 8.03-4.32v-.18l-1.87-1.56-6.16 6.06Z" style="fill:#ff8000" transform="translate(-5281.767 -7384.16) scale(22.1323)"/>
		<path d="M261.207 356.602c.773.75 1.223 1.318 1.223 1.318v.19s-.443.554-1.206 1.288a15.054 15.054 0 0 1-1.223-1.318v-.19s.443-.554 1.206-1.288Z" style="fill:#fff" transform="translate(-5073.177 -7386.593) scale(22.1053)"/>
		<path d="m260.983 356.82 1.447 1.207v.181s-.476.491-1.255 1.142a14.87 14.87 0 0 1-1.174-1.27v-.19s.357-.447.982-1.07Z" style="fill:#fff" transform="translate(-5395.284 -7386.593) scale(22.1053)"/>
	</g>
</svg>
