<svg
	viewBox="0 0 100 100"
	xmlns="http://www.w3.org/2000/svg"
	xml:space="preserve"
	style="fill-rule:evenodd;clip-rule:evenodd;stroke-linejoin:round;stroke-miterlimit:2"
>
	<circle cx="50" cy="50" r="50" style="fill:#456"/>
	<path d="M64.93 51.667c1.561-1.504 2.468-2.637 2.468-2.637v-.389s-.92-1.163-2.504-2.699c3.079-2.965 8.704-7.371 14.951-7.371 9.415 0 17.377 10.07 17.377 10.07v.389s-8.003 10.008-17.418 10.008c-6.215 0-11.798-4.388-14.874-7.371Zm14.854 3.401c3.172 0 5.772-2.743 5.772-6.12 0-3.398-2.6-6.141-5.772-6.141-3.193 0-5.772 2.743-5.772 6.141 0 3.377 2.579 6.12 5.772 6.12Zm0-8.965c1.453 0 2.64 1.248 2.64 2.804 0 1.535-1.187 2.804-2.64 2.804-1.454 0-2.641-1.269-2.641-2.804 0-1.556 1.187-2.804 2.641-2.804Z" style="fill:#40bcf4"/>
	<path d="M34.613 46.39c2.955-2.946 8.837-7.819 15.407-7.819 6.216 0 11.798 4.388 14.874 7.371-1.561 1.504-2.467 2.637-2.467 2.637v.389s.919 1.163 2.503 2.699c-3.078 2.965-8.704 7.371-14.95 7.371-6.285 0-11.921-4.486-14.975-7.469 1.594-1.334 2.57-2.34 2.57-2.34v-.368l-2.962-2.471Zm15.346 8.678c3.173 0 5.772-2.743 5.772-6.12 0-3.398-2.599-6.141-5.772-6.141-3.193 0-5.772 2.743-5.772 6.141 0 3.377 2.579 6.12 5.772 6.12Zm0-8.965c1.453 0 2.64 1.248 2.64 2.804 0 1.535-1.187 2.804-2.64 2.804s-2.64-1.269-2.64-2.804c0-1.556 1.187-2.804 2.64-2.804Z" style="fill:#00e054"/>
	<path d="M34.613 46.39c-1.28 1.275-2.011 2.189-2.011 2.189v.389s.881 1.114 2.403 2.601c-3.137 2.622-8.669 6.513-13.886 6.513l12.623-12.418.871.726Zm-14.416-6.485c2.807 0 5.328.021 7.705 1.271l5.922-5.923c1.251-1.229 4.263 1.332 2.808 2.787L10.053 64.681c-1.435 1.435-4.119-1.455-2.787-2.787l4.898-4.918c-5.575-2.951-9.386-7.808-9.386-7.808v-.369s7.931-8.894 17.419-8.894Zm-.041 6.414c.717 0 1.926.861 2.397 1.353l2.255-2.275c-1.046-1.086-3.054-2.336-4.652-2.336-3.218 0-5.82 2.726-5.82 6.087 0 1.577.983 3.422 1.947 4.508l2.274-2.295c-.41-.492-1.065-1.537-1.065-2.254 0-1.537 1.188-2.788 2.664-2.788Z" style="fill:#ff8000"/>
	<path d="M64.894 45.942c1.584 1.536 2.504 2.699 2.504 2.699v.389s-.907 1.133-2.468 2.637c-1.584-1.536-2.503-2.699-2.503-2.699v-.389s.906-1.133 2.467-2.637ZM34.613 46.39l2.962 2.471v.368s-.976 1.006-2.57 2.34c-1.522-1.487-2.403-2.601-2.403-2.601v-.389s.731-.914 2.011-2.189Z" style="fill:#fff"/>
</svg>
